<svg width="146px" height="40px" viewBox="0 0 146 40" version="1.1" xmlns="http://www.w3.org/2000/svg" xmlns:xlink="http://www.w3.org/1999/xlink">
    <!-- Generator: Sketch 44.1 (41455) - http://www.bohemiancoding.com/sketch -->
    <desc>Created with Sketch.</desc>
    <defs>
        <polygon id="path-1" points="6.84665608e-16 21.4204977 6.84665608e-16 0.748869767 21.5955801 0.748869767 21.5955801 21.4204977 0 21.4204977"></polygon>
        <polygon id="path-3" points="27.1931048 0.74944186 0.735587297 0.74944186 0.735587297 34.7244256 27.1931048 34.7244256 27.1931048 0.74944186"></polygon>
    </defs>
    <g id="Screens" stroke="none" stroke-width="1" fill="none" fill-rule="evenodd">
        <g id="Footer" transform="translate(-527.000000, -37.000000)">
            <g id="Group" transform="translate(527.000000, 36.000000)">
                <g id="Page-1">
                    <g id="Group-3" transform="translate(0.000000, 13.553265)">
                        <mask id="mask-2" fill="white">
                            <use xlink:href="#path-1"></use>
                        </mask>
                        <g id="Clip-2"></g>
                        <path d="M12.245756,5.05005581 C9.87626182,5.05005581 8.60307174,6.51270698 8.03256595,8.3233814 L14.7046651,8.3233814 C14.9243147,6.21235814 14.2216304,5.05005581 12.245756,5.05005581 M21.3330288,10.8691953 L21.0249362,12.6350558 L7.81388826,12.6350558 C8.2075081,14.3561023 9.65661223,15.5632186 12.0717858,15.5632186 C14.0894519,15.5632186 16.4161825,15.0464279 18.5232635,14.097707 L19.2687114,19.2684744 C16.6795676,20.6443581 13.3002684,21.4204977 9.87626182,21.4204977 C3.46851967,21.4204977 -0.000194380165,18.3197535 -0.000194380165,12.9354047 C-0.000194380165,5.35707907 4.65326678,0.748869767 12.5975841,0.748869767 C19.7080106,0.748869767 22.5177759,4.0670093 21.3330288,10.8691953" id="Fill-1" fill="#FFFFFF" mask="url(#mask-2)"></path>
                    </g>
                    <polygon id="Fill-4" fill="#FFFFFF" points="47.3789018 14.733493 31.6049514 40.2507488 22.7470473 14.733493 28.4773745 14.733493 33.4146307 27.9459814 41.536806 14.6829581"></polygon>
                    <polygon id="Fill-6" fill="#FFFFFF" points="57.164874 14.733493 53.960517 34.542214 46.7324906 34.542214 49.9368476 14.733493"></polygon>
                    <path d="M93.5128959,20.6351093 L91.2308727,34.5426907 L83.4614975,34.5426907 L85.3051934,23.0016674 C85.5685785,21.4942023 84.9096298,20.6351093 83.064962,20.6351093 C82.232043,20.6351093 81.3553884,20.8486907 80.4320826,21.1938535 L78.282238,34.5426907 L70.687805,34.5426907 L72.5315008,22.8739 C72.7958579,21.4522488 72.1359372,20.6351093 70.2922413,20.6351093 C69.4155868,20.6351093 68.4495174,20.8486907 67.4387405,21.1938535 L65.2888959,34.5426907 L57.5204926,34.5426907 L60.7238777,14.7339698 L66.6058215,14.7339698 L66.9576496,16.1546674 C69.5030579,14.9504116 72.4002942,14.3020395 74.6823174,14.3020395 C77.184962,14.3020395 78.939243,14.9923651 79.8625488,16.3711093 C82.3642215,14.9923651 85.3489289,14.3020395 87.719395,14.3020395 C92.1084992,14.3020395 94.1708727,16.4998302 93.5128959,20.6351093" id="Fill-8" fill="#FFFFFF"></path>
                    <path d="M108.069638,18.6033209 C105.700143,18.6033209 104.426953,20.0659721 103.856448,21.8766465 L110.528547,21.8766465 C110.747224,19.7656233 110.045512,18.6033209 108.069638,18.6033209 M117.15691,24.4224605 L116.848818,26.1883209 L103.63777,26.1883209 C104.03139,27.9093674 105.480494,29.1164837 107.895667,29.1164837 C109.913334,29.1164837 112.240064,28.599693 114.347145,27.6509721 L115.092593,32.8217395 C112.503449,34.1976233 109.12415,34.9737628 105.700143,34.9737628 C99.2924013,34.9737628 95.8236873,31.8730186 95.8236873,26.4886698 C95.8236873,18.9103442 100.477148,14.3021349 108.421466,14.3021349 C115.531892,14.3021349 118.341658,17.6202744 117.15691,24.4224605" id="Fill-10" fill="#FFFFFF"></path>
                    <g id="Group-14" transform="translate(118.571901, 0.204428)">
                        <mask id="mask-4" fill="white">
                            <use xlink:href="#path-3"></use>
                        </mask>
                        <g id="Clip-13"></g>
                        <path d="M11.9624469,28.3951698 C12.97128,28.3951698 14.0267643,28.2674023 14.9908899,27.964193 L16.088166,21.162007 C15.2989825,20.6862163 14.3756767,20.4306814 13.235637,20.4306814 C10.6455213,20.4306814 8.9777395,21.8933326 8.53941223,24.4353326 C8.10011306,26.9744721 9.37233124,28.3951698 11.9624469,28.3951698 L11.9624469,28.3951698 Z M27.1931048,0.748774419 L21.7504602,34.3382628 L15.7810453,34.3382628 L15.342718,32.7030302 C13.6302288,34.037914 11.5231478,34.7244256 9.19738909,34.7244256 C2.83338248,34.7244256 -0.107589421,30.9781698 0.944979174,24.4353326 C1.99851967,17.8886814 5.94832463,14.1424256 12.0061825,14.0976116 C14.0695279,14.0976116 15.7810453,14.356007 17.096999,14.9605186 L19.2050519,1.91203023 L27.1931048,0.748774419 Z" id="Fill-12" fill="#FFFFFF" mask="url(#mask-4)"></path>
                    </g>
                    <path d="M45.8304694,2.91595814 L34.1880694,23.2166791 C34.133643,23.3110744 33.9927174,23.3015395 33.9518975,23.2014233 L30.4394479,14.690586 L34.0209025,16.1608651 C34.0724132,16.1818419 34.1326711,16.1675395 34.1696033,16.125586 L45.8304694,2.91595814 Z" id="Fill-15" fill="#00A69C"></path>
                </g>
            </g>
        </g>
    </g>
</svg>